<svg width="485" height="348" viewBox="0 0 485 348" fill="none" xmlns="http://www.w3.org/2000/svg">
<path d="M0.219727 0.309204H35.5897V124.469C50.7497 108.949 67.3497 107.509 76.3697 107.509C104.16 107.509 116.79 121.949 121.12 128.079C130.5 141.789 130.86 159.479 130.86 170.309V263.429H95.4897V173.559C95.4897 164.539 95.4897 154.789 88.6297 147.209C84.6597 142.879 77.7997 139.269 68.7797 139.269C56.8697 139.269 47.4897 145.039 42.7897 151.899C37.7397 159.119 35.5697 170.669 35.5697 190.159V263.429H0.219727V0.309204Z" fill="black"/>
<path d="M313.86 228.769C307.36 240.319 297.98 250.419 288.24 256.559C275.97 264.499 259.73 268.109 243.49 268.109C223.28 268.109 206.68 263.059 192.24 248.619C177.8 234.179 169.86 213.249 169.86 190.509C169.86 167.769 178.16 144.309 194.04 128.069C206.67 115.439 223.27 107.499 244.93 107.499C269.11 107.499 284.63 117.969 293.65 127.349C313.14 147.559 314.94 175.709 314.94 191.589V195.919H205.94C206.66 206.749 211.35 219.019 218.93 226.599C227.23 234.899 237.34 236.349 246 236.349C255.74 236.349 262.96 234.179 270.18 228.769C276.31 224.079 281.01 217.939 284.26 212.169L313.86 228.769ZM278.85 167.049C277.41 158.749 273.44 151.529 268.02 146.479C263.33 142.149 255.75 137.819 244.2 137.819C231.93 137.819 223.99 142.869 219.3 147.559C214.25 152.249 210.28 159.469 208.47 167.049H278.85Z" fill="black"/>
<path d="M393.26 0.309204V263.419H357.89V0.309204H393.26Z" fill="black"/>
<path d="M461.83 25.9292C474.82 25.9292 484.57 35.6692 484.57 48.6692C484.57 61.6692 474.82 71.4092 461.83 71.4092C448.84 71.4092 439.09 61.6692 439.09 48.6692C439.09 35.6692 448.83 25.9292 461.83 25.9292ZM479.52 111.469V263.419H444.15V111.469H479.52Z" fill="black"/>
<path d="M31.4597 336.819C31.4597 343.289 26.7397 346.969 17.3097 346.969H0.199707V308.579H16.2097C24.4397 308.579 29.4297 312.039 29.4297 318.399C29.4297 322.949 26.8497 325.909 23.0097 327.169C28.4397 328.209 31.4597 331.499 31.4597 336.819ZM2.99971 310.989V326.289H16.1097C22.7497 326.289 26.5897 323.709 26.5897 318.609C26.5897 313.509 22.7497 310.989 16.1097 310.989H2.99971ZM28.6697 336.599C28.6697 331.119 24.6697 328.699 17.3197 328.699H2.99971V344.549H17.3097C24.6597 344.549 28.6597 342.139 28.6597 336.599H28.6697Z" fill="#C7CBC8"/>
<path d="M115.37 308.579H118.17V344.449H140.27V346.969H115.37V308.579Z" fill="#C7CBC8"/>
<path d="M250.91 336.159H228.64L223.76 346.959H220.74L238.4 308.569H241.2L258.86 346.959H255.84L250.9 336.159H250.91ZM249.87 333.799L239.78 311.639L229.74 333.799H249.87Z" fill="#C7CBC8"/>
<path d="M335 327.769C335 316.579 343.5 308.299 354.91 308.299C360.34 308.299 365.22 310.049 368.57 313.619L366.82 315.429C363.53 312.189 359.53 310.879 355.03 310.879C345.21 310.879 337.81 318.119 337.81 327.769C337.81 337.419 345.21 344.659 355.03 344.659C359.53 344.659 363.53 343.289 366.82 340.049L368.57 341.859C365.22 345.419 360.34 347.229 354.91 347.229C343.5 347.229 335 338.949 335 327.759V327.769Z" fill="#C7CBC8"/>
<path d="M459.52 328.039L450.91 336.869V346.959H448.11V308.569H450.91V333.249L474.88 308.569H478.28L461.39 326.009L479.43 346.959H476.03L459.52 328.039Z" fill="#C7CBC8"/>
</svg>
